<?xml version="1.0" encoding="UTF-8"?>
<svg width="48px" height="48px" viewBox="0 0 48 48" version="1.1" xmlns="http://www.w3.org/2000/svg" xmlns:xlink="http://www.w3.org/1999/xlink">
    <!-- Generator: Sketch 43.2 (39069) - http://www.bohemiancoding.com/sketch -->
    <title>Artboard 2</title>
    <desc>Created with Sketch.</desc>
    <defs></defs>
    <g id="UI" stroke="none" stroke-width="1" fill="none" fill-rule="evenodd">
        <g id="Artboard-2" fill="#FFFFFF">
            <path d="M0.940864288,46.9375516 L47.0599232,46.9375516 L47.0599232,0.940076782 L0.940864288,0.940076782 L0.940864288,46.9375516 Z M48,47.8783817 L0,47.8783817 L0,0 L48,0 L48,47.8783817 Z M14.9593279,14.5662939 L10.4769119,14.5662939 L12.5437044,8.95411493 L12.828268,8.95411493 L14.9593279,14.5662939 Z M15.2538209,15.338084 L16.3101404,18.1575611 L14.8399694,18.1575611 C14.6502831,18.1575611 14.5156538,18.1935125 14.4353624,18.2631212 C14.3557901,18.3342706 14.3160039,18.4276072 14.3160039,18.54385 C14.3160039,18.6539981 14.3557901,18.7457939 14.4353624,18.8192374 C14.5156538,18.8926467 14.6502831,18.9293855 14.8399694,18.9293855 L17.7152909,18.9293855 C17.8988825,18.9293855 18.0304645,18.8926467 18.1100026,18.8192374 C18.1895407,18.7457939 18.2293269,18.6539981 18.2293269,18.54385 C18.2293269,18.4276072 18.1895407,18.3342706 18.1100026,18.2631212 C18.0304645,18.1935125 17.8988825,18.1575611 17.7152909,18.1575611 L17.1179162,18.1575611 L13.351446,8.18229053 L9.46568571,8.18229053 C9.28288159,8.18229053 9.15054633,8.21748863 9.07176149,8.28785058 C8.99143587,8.35824677 8.9516497,8.45154912 8.9516497,8.5678261 C8.9516497,8.68485634 8.99143587,8.77819293 9.07176149,8.84776738 C9.15054633,8.91891684 9.28288159,8.95411493 9.46568571,8.95411493 L11.7443858,8.95411493 L8.33667595,18.1575611 L7.74002029,18.1575611 C7.55567539,18.1575611 7.42337438,18.1935125 7.34458953,18.2631212 C7.26426392,18.3342706 7.22523101,18.4276072 7.22523101,18.54385 C7.22523101,18.6539981 7.26426392,18.7457939 7.34458953,18.8192374 C7.42337438,18.8926467 7.55567539,18.9293855 7.74002029,18.9293855 L10.6237647,18.9293855 C10.8073563,18.9293855 10.9389041,18.8926467 11.0192297,18.8192374 C11.0980145,18.7457939 11.138554,18.6539981 11.138554,18.54385 C11.138554,18.4276072 11.0980145,18.3342706 11.0192297,18.2631212 C10.9389041,18.1935125 10.8073563,18.1575611 10.6237647,18.1575611 L9.14441748,18.1575611 L10.1831722,15.338084 L15.2538209,15.338084 Z M21.4901498,13.3628477 L21.4901498,8.95387526 L24.3287667,8.95387526 C25.069981,8.95387526 25.698719,9.18639498 26.2165898,9.65146866 C26.7336732,10.1173298 26.9922148,10.6068504 26.9922148,11.1216397 C26.9922148,11.4650951 26.8683025,11.8008808 26.6204435,12.1321127 C26.3726188,12.4625571 25.9741065,12.7509213 25.4264131,12.9956987 C24.878754,13.2404761 24.2675809,13.3628477 23.5936811,13.3628477 L21.4901498,13.3628477 Z M21.4901498,14.1346379 L23.9432653,14.1346379 C24.6225064,14.4589876 25.2244692,14.9118036 25.7476814,15.4939075 C26.2716468,16.0760115 27.0113204,17.2210795 27.9667022,18.9291459 L28.9955275,18.9291459 C29.1790849,18.9291459 29.3106669,18.8924412 29.390205,18.8189977 C29.4697773,18.7455542 29.508776,18.6537927 29.508776,18.5436445 C29.508776,18.4273675 29.4697773,18.334031 29.390205,18.263669 C29.3106669,18.1933071 29.1790849,18.158109 28.9955275,18.158109 L28.4072947,18.158109 C27.5437087,16.6757144 26.915724,15.6958515 26.5240938,15.2185543 C26.1316761,14.7404697 25.6604736,14.3121006 25.1089797,13.9327282 C26.0643615,13.6076251 26.7458966,13.2022307 27.1528318,12.7149699 C27.5605545,12.2284966 27.764005,11.7091192 27.764005,11.1583786 C27.764005,10.392683 27.4343139,9.70580657 26.7765066,9.09613994 C26.1186652,8.48650754 25.3086296,8.18208509 24.347119,8.18208509 L19.6811457,8.18208509 C19.497554,8.18208509 19.3652188,8.21724895 19.2856807,8.28764514 C19.2061425,8.35876036 19.1663564,8.45209695 19.1663564,8.56758642 C19.1663564,8.68461667 19.2061425,8.77795325 19.2856807,8.84831521 C19.3652188,8.91867716 19.497554,8.95387526 19.6811457,8.95387526 L20.7183596,8.95387526 L20.7183596,18.158109 L19.6811457,18.158109 C19.497554,18.158109 19.3652188,18.1933071 19.2856807,18.263669 C19.2061425,18.334031 19.1663564,18.4273675 19.1663564,18.5436445 C19.1663564,18.6537927 19.2061425,18.7455542 19.2856807,18.8189977 C19.3652188,18.8924412 19.497554,18.9291459 19.6811457,18.9291459 L22.9136868,18.9291459 C23.103373,18.9291459 23.2387556,18.8924412 23.3183279,18.8189977 C23.397866,18.7455542 23.4376522,18.6537927 23.4376522,18.5436445 C23.4376522,18.4273675 23.397866,18.334031 23.3183279,18.263669 C23.2387556,18.1933071 23.103373,18.158109 22.9136868,18.158109 L21.4901498,18.158109 L21.4901498,14.1346379 Z M35.6732364,8.95380678 L38.8331215,8.95380678 L38.8331215,11.6271844 C38.8331215,11.8168706 38.8682853,11.9514999 38.9386473,12.0310722 C39.008256,12.1106104 39.1023458,12.1503965 39.2186228,12.1503965 C39.3348998,12.1503965 39.4282021,12.1106104 39.4985983,12.0310722 C39.5697135,11.9514999 39.6049116,11.8168706 39.6049116,11.6271844 L39.6049116,8.18201661 L30.9605947,8.18201661 L30.9605947,11.6271844 C30.9605947,11.8168706 30.9980869,11.9514999 31.0707429,12.0310722 C31.1441864,12.1106104 31.2359479,12.1503965 31.3468836,12.1503965 C31.4631263,12.1503965 31.5564629,12.1106104 31.6268249,12.0310722 C31.697221,11.9514999 31.7323849,11.8168706 31.7323849,11.6271844 L31.7323849,8.95380678 L34.89227,8.95380678 L34.89227,18.1580405 L32.8897106,18.1580405 C32.706119,18.1580405 32.5737838,18.1932043 32.4949989,18.2636005 C32.4147075,18.3339625 32.3749214,18.4272991 32.3749214,18.5435418 C32.3749214,18.6536899 32.4147075,18.7454857 32.4949989,18.8189292 C32.5737838,18.893126 32.706119,18.9298306 32.8897106,18.9298306 L37.6750082,18.9298306 C37.8585999,18.9298306 37.9909351,18.893126 38.0704732,18.8189292 C38.1500456,18.7454857 38.1897975,18.6536899 38.1897975,18.5435418 C38.1897975,18.4272991 38.1500456,18.3339625 38.0704732,18.2636005 C37.9909351,18.1932043 37.8585999,18.1580405 37.6750082,18.1580405 L35.6732364,18.1580405 L35.6732364,8.95380678 Z M10.2010109,35.1383143 L12.9661843,35.1383143 L12.9661843,36.0111107 C12.9661843,36.1946681 13.0028889,36.3270033 13.0763324,36.4057882 C13.1497417,36.4861138 13.2445848,36.5251125 13.3608618,36.5251125 C13.4710099,36.5251125 13.563559,36.4861138 13.6362492,36.4057882 C13.710446,36.3270033 13.7471506,36.1946681 13.7471506,36.0111107 L13.7471506,33.4945153 C13.7471506,33.3101704 13.710446,33.1786226 13.6362492,33.0990503 C13.563559,33.0195122 13.4710099,32.979726 13.3608618,32.979726 C13.2445848,32.979726 13.1497417,33.0195122 13.0763324,33.0990503 C13.0028889,33.1786226 12.9661843,33.3101704 12.9661843,33.4945153 L12.9661843,34.3665241 L10.2010109,34.3665241 L10.2010109,30.3530167 L15.7305702,30.3530167 L15.7305702,32.2362518 C15.7305702,32.4198092 15.7657683,32.5513912 15.8361303,32.6309293 C15.9072797,32.7105016 16.0005821,32.7502536 16.1161058,32.7502536 C16.233136,32.7502536 16.3264384,32.7105016 16.3968346,32.6309293 C16.4671965,32.5513912 16.5023946,32.4198092 16.5023946,32.2362518 L16.5023946,29.5812265 L8.39197257,29.5812265 C8.20838095,29.5812265 8.07607993,29.6163904 7.99650758,29.6867866 C7.91696947,29.7571485 7.8771833,29.8504509 7.8771833,29.9667279 C7.8771833,30.0837581 7.91696947,30.1770947 7.99650758,30.2467034 C8.07607993,30.3178186 8.20838095,30.3530167 8.39197257,30.3530167 L9.42918651,30.3530167 L9.42918651,39.5564971 L8.39197257,39.5564971 C8.20838095,39.5564971 8.07607993,39.591661 7.99650758,39.6620572 C7.91696947,39.7331724 7.8771833,39.826509 7.8771833,39.9419985 C7.8771833,40.0528999 7.91696947,40.1446957 7.99650758,40.2181392 C8.07607993,40.2915827 8.20838095,40.3282873 8.39197257,40.3282873 L16.9070015,40.3282873 L16.9070015,37.2785503 C16.9070015,37.0949929 16.8718377,36.9634109 16.8014757,36.8830853 C16.7303263,36.8043005 16.6369897,36.7645485 16.5215002,36.7645485 C16.40447,36.7645485 16.3111334,36.8043005 16.2407714,36.8830853 C16.1704095,36.9634109 16.1352114,37.0949929 16.1352114,37.2785503 L16.1352114,39.5564971 L10.2010109,39.5564971 L10.2010109,35.1383143 Z M24.4662378,34.8260853 L27.9014761,30.3528455 L28.1959692,30.3528455 C28.3795266,30.3528455 28.5111085,30.3176817 28.5913999,30.2472855 C28.670219,30.1769235 28.7107584,30.0836212 28.7107584,29.9665909 C28.7107584,29.8510672 28.670219,29.7577649 28.5913999,29.6866154 C28.5111085,29.6162534 28.3795266,29.5810553 28.1959692,29.5810553 L26.0832616,29.5810553 C25.8927879,29.5810553 25.7581586,29.6162534 25.6793738,29.6866154 C25.5990481,29.7577649 25.5600495,29.8510672 25.5600495,29.9665909 C25.5600495,30.0836212 25.5990481,30.1769235 25.6793738,30.2472855 C25.7581586,30.3176817 25.8927879,30.3528455 26.0832616,30.3528455 L26.9468476,30.3528455 L23.9889064,34.2019011 L21.0126129,30.3528455 L21.8762332,30.3528455 C22.0659194,30.3528455 22.2005487,30.3176817 22.2808743,30.2472855 C22.3596591,30.1769235 22.4001986,30.0836212 22.4001986,29.9665909 C22.4001986,29.8510672 22.3596591,29.7577649 22.2808743,29.6866154 C22.2005487,29.6162534 22.0659194,29.5810553 21.8762332,29.5810553 L19.7727018,29.5810553 C19.5891102,29.5810553 19.4567749,29.6162534 19.3779901,29.6866154 C19.2976987,29.7577649 19.2579125,29.8510672 19.2579125,29.9665909 C19.2579125,30.0836212 19.2976987,30.1769235 19.3779901,30.2472855 C19.4567749,30.3176817 19.5891102,30.3528455 19.7727018,30.3528455 L20.0572654,30.3528455 L23.5116093,34.8260853 L19.8927793,39.5570792 C19.5791807,39.5570792 19.3925418,39.5655021 19.331356,39.5846419 C19.270136,39.602241 19.2158323,39.6458277 19.1661167,39.7131424 C19.1171544,39.780457 19.0934607,39.8569478 19.0934607,39.9418615 C19.0934607,40.0527629 19.1324594,40.1445587 19.212785,40.217968 C19.2915698,40.2921647 19.4231176,40.3281161 19.6067092,40.3281161 L22.0689667,40.3281161 C22.2525583,40.3281161 22.3841061,40.2921647 22.4644317,40.217968 C22.5432165,40.1445587 22.583756,40.0527629 22.583756,39.9418615 C22.583756,39.8263378 22.5432165,39.7330355 22.4644317,39.661886 C22.3841061,39.591524 22.2525583,39.5570792 22.0689667,39.5570792 L20.8382317,39.5570792 L23.9889064,35.4594456 L27.17632,39.5570792 L25.945585,39.5570792 C25.7612402,39.5570792 25.6296582,39.591524 25.5501201,39.661886 C25.4705477,39.7330355 25.431549,39.8263378 25.431549,39.9418615 C25.431549,40.0527629 25.4705477,40.1445587 25.5501201,40.217968 C25.6296582,40.2921647 25.7612402,40.3281161 25.945585,40.3281161 L28.4254416,40.3281161 C28.608999,40.3281161 28.7413342,40.2921647 28.8201191,40.217968 C28.9004447,40.1445587 28.9402309,40.0527629 28.9402309,39.9418615 C28.9402309,39.8263378 28.9004447,39.7330355 28.8201191,39.661886 C28.7413342,39.591524 28.608999,39.5570792 28.4254416,39.5570792 L28.1317018,39.5570792 L24.4662378,34.8260853 Z M32.7704548,39.5568053 L32.7704548,35.1386225 L35.5448044,35.1386225 C36.3953794,35.1386225 37.0631503,35.2334998 37.5465763,35.4231861 C38.0307898,35.6128723 38.4086557,35.891307 38.6817149,36.2584561 C38.954055,36.6263926 39.0901908,37.0065526 39.0901908,37.3981827 C39.0901908,37.7470137 38.9953477,38.0835527 38.8056615,38.4086557 C38.615941,38.7329713 38.336753,39.0052771 37.969604,39.2255734 C37.6016675,39.4458697 37.1702511,39.5568053 36.6746016,39.5568053 L32.7704548,39.5568053 Z M32.7704548,34.3576561 L32.7704548,30.3525716 L35.829368,30.3525716 C36.5575714,30.3525716 37.1488515,30.5560221 37.6016675,30.9637105 C38.0552709,31.3706457 38.2816618,31.8166138 38.2816618,32.3000398 C38.2816618,32.6373663 38.1776425,32.9678107 37.969604,33.2921262 C37.7607779,33.6164418 37.470873,33.865054 37.0968076,34.0356346 C36.6126283,34.2505553 36.08024,34.3576561 35.4981361,34.3576561 L32.7704548,34.3576561 Z M31.9986647,39.5568053 L30.9606632,39.5568053 C30.7778591,39.5568053 30.6455238,39.5919692 30.5659857,39.6623311 C30.4864134,39.7327273 30.4466272,39.8268171 30.4466272,39.9423066 C30.4466272,40.0524548 30.4864134,40.1450038 30.5659857,40.2176598 C30.6455238,40.2918566 30.7778591,40.3285955 30.9606632,40.3285955 L36.7296586,40.3285955 C37.3232327,40.3285955 37.8732201,40.1779079 38.3780457,39.8780393 C38.8836588,39.5782049 39.2584775,39.215644 39.5040081,38.789569 C39.7480323,38.3635282 39.8704039,37.8938664 39.8704039,37.3790772 C39.8704039,36.8038554 39.683765,36.2775959 39.3104871,35.7995112 C38.9372092,35.3222141 38.3489765,34.9397601 37.5465763,34.6513959 C38.5570492,34.0700452 39.0626624,33.3074312 39.0626624,32.3642729 C39.0626624,31.6177172 38.7604997,30.9667921 38.1577494,30.4122166 C37.5549992,29.8584287 36.7717388,29.5807472 35.8110157,29.5807472 L30.9606632,29.5807472 C30.7778591,29.5807472 30.6455238,29.6166986 30.5659857,29.6870947 C30.4864134,29.7574567 30.4466272,29.850759 30.4466272,29.967036 C30.4466272,30.083313 30.4864134,30.1766154 30.5659857,30.2470115 C30.6455238,30.3173735 30.7778591,30.3525716 30.9606632,30.3525716 L31.9986647,30.3525716 L31.9986647,39.5568053 Z" id="Combined-Shape"></path>
        </g>
    </g>
</svg>
