<?xml version="1.0" encoding="UTF-8"?>
<svg width="128px" height="768px" viewBox="0 0 128 768" version="1.1" xmlns="http://www.w3.org/2000/svg" xmlns:xlink="http://www.w3.org/1999/xlink">
    <!-- Generator: Sketch 43.2 (39069) - http://www.bohemiancoding.com/sketch -->
    <title>artexb_skin</title>
    <desc>Created with Sketch.</desc>
    <defs>
        <path d="M41.24,78.48 C40.26,77.5 38.68,77.5 37.7,78.48 L21.08,95.1 C20.3,95.88 20.3,97.14 21.08,97.92 L37.7,114.54 C38.68,115.52 40.26,115.52 41.24,114.54 C42.22,113.56 42.22,111.98 41.24,111 L26.76,96.5 L41.26,82 C42.22,81.04 42.22,79.44 41.24,78.48 Z" id="path-1"></path>
        <filter x="-27.9%" y="-16.0%" width="155.9%" height="132.0%" filterUnits="objectBoundingBox" id="filter-2">
            <feOffset dx="0" dy="0" in="SourceAlpha" result="shadowOffsetOuter1"></feOffset>
            <feGaussianBlur stdDeviation="2" in="shadowOffsetOuter1" result="shadowBlurOuter1"></feGaussianBlur>
            <feColorMatrix values="0 0 0 0 0   0 0 0 0 0   0 0 0 0 0  0 0 0 0.5 0" type="matrix" in="shadowBlurOuter1"></feColorMatrix>
        </filter>
        <path d="M86.76,114.52 C87.74,115.5 89.32,115.5 90.3,114.52 L106.92,97.9 C107.7,97.12 107.7,95.86 106.92,95.08 L90.3,78.46 C89.32,77.48 87.74,77.48 86.76,78.46 C85.78,79.44 85.78,81.02 86.76,82 L101.24,96.5 L86.74,111 C85.78,111.96 85.78,113.56 86.76,114.52 L86.76,114.52 Z" id="path-3"></path>
        <filter x="-27.9%" y="-16.0%" width="155.9%" height="132.0%" filterUnits="objectBoundingBox" id="filter-4">
            <feOffset dx="0" dy="0" in="SourceAlpha" result="shadowOffsetOuter1"></feOffset>
            <feGaussianBlur stdDeviation="2" in="shadowOffsetOuter1" result="shadowBlurOuter1"></feGaussianBlur>
            <feColorMatrix values="0 0 0 0 0   0 0 0 0 0   0 0 0 0 0  0 0 0 0.5 0" type="matrix" in="shadowBlurOuter1"></feColorMatrix>
        </filter>
        <path d="M96,460.5 C99.5312677,460.5 102.812485,461.390616 105.84375,463.171875 C108.781265,464.890634 111.109366,467.218735 112.828125,470.15625 C114.609384,473.187515 115.5,476.468732 115.5,480 C115.5,483.531268 114.609384,486.812485 112.828125,489.84375 C111.109366,492.781265 108.781265,495.109366 105.84375,496.828125 C102.812485,498.609384 99.5312677,499.5 96,499.5 C92.4687323,499.5 89.1875152,498.609384 86.15625,496.828125 C83.2187353,495.109366 80.8906336,492.781265 79.171875,489.84375 C77.3906161,486.812485 76.5,483.531268 76.5,480 C76.5,476.468732 77.3906161,473.187515 79.171875,470.15625 C80.8906336,467.218735 83.2187353,464.890634 86.15625,463.171875 C89.1875152,461.390616 92.4687323,460.5 96,460.5 Z M96,463.5 C92.999985,463.5 90.2187628,464.249993 87.65625,465.75 C85.1874877,467.218757 83.2187573,469.187488 81.75,471.65625 C80.2499925,474.218763 79.5,476.999985 79.5,480 C79.5,483.000015 80.2499925,485.781237 81.75,488.34375 C83.2187573,490.812512 85.1874877,492.781243 87.65625,494.25 C90.2187628,495.750007 92.999985,496.5 96,496.5 C99.000015,496.5 101.781237,495.750007 104.34375,494.25 C106.812512,492.781243 108.781243,490.812512 110.25,488.34375 C111.750008,485.781237 112.5,483.000015 112.5,480 C112.5,476.999985 111.750008,474.218763 110.25,471.65625 C108.781243,469.187488 106.812512,467.218757 104.34375,465.75 C101.781237,464.249993 99.000015,463.5 96,463.5 Z M96,472.640625 L97.078125,473.671875 L106.078125,482.671875 L103.921875,484.828125 L96,476.90625 L88.078125,484.828125 L85.921875,482.671875 L94.921875,473.671875 L96,472.640625 Z" id="path-5"></path>
        <filter x="-15.4%" y="-15.4%" width="130.8%" height="130.8%" filterUnits="objectBoundingBox" id="filter-6">
            <feOffset dx="0" dy="0" in="SourceAlpha" result="shadowOffsetOuter1"></feOffset>
            <feGaussianBlur stdDeviation="2" in="shadowOffsetOuter1" result="shadowBlurOuter1"></feGaussianBlur>
            <feColorMatrix values="0 0 0 0 0   0 0 0 0 0   0 0 0 0 0  0 0 0 0.5 0" type="matrix" in="shadowBlurOuter1"></feColorMatrix>
        </filter>
    </defs>
    <g id="icon-basic" stroke="none" stroke-width="1" fill="none" fill-rule="evenodd">
        <g id="artexb_skin">
            <path d="M20,16 L44,16 C45.2500062,16 46.374995,16.3281217 47.375,16.984375 C48.1875041,17.5468778 48.8124978,18.2499958 49.25,19.09375 C49.5000012,19.5625023 49.6874994,20.1093719 49.8125,20.734375 C50.7500047,21.0156264 51.515622,21.5468711 52.109375,22.328125 C52.703128,23.1093789 53,23.999995 53,25 L53,44.5 C53,45.7187561 52.554692,46.773433 51.6640625,47.6640625 C50.773433,48.554692 49.7187561,49 48.5,49 L38,49 C36.999995,49 36.0859416,48.7265652 35.2578125,48.1796875 C34.4296834,47.6328098 33.812502,46.9062545 33.40625,46 L30.59375,46 C30.187498,46.9062545 29.5703166,47.6328098 28.7421875,48.1796875 C27.9140584,48.7265652 27.000005,49 26,49 L15.5,49 C14.2812439,49 13.226567,48.554692 12.3359375,47.6640625 C11.445308,46.773433 11,45.7187561 11,44.5 L11,25 C11,23.999995 11.296872,23.1093789 11.890625,22.328125 C12.484378,21.5468711 13.2499953,21.0156264 14.1875,20.734375 C14.3125006,20.1093719 14.4999987,19.5625023 14.75,19.09375 C15.1875022,18.2499958 15.8124959,17.5468778 16.625,16.984375 C17.625005,16.3281217 18.7499938,16 20,16 Z M20,19 C19.2187461,19 18.625002,19.1406236 18.21875,19.421875 C17.9374986,19.6093759 17.6718763,19.9374977 17.421875,20.40625 L17.375,20.5 L46.625,20.5 L46.578125,20.40625 C46.3281238,19.9374977 46.0625014,19.6093759 45.78125,19.421875 C45.374998,19.1406236 44.7812539,19 44,19 L20,19 Z M15.5,23.5 C15.0624978,23.5 14.7031264,23.6406236 14.421875,23.921875 C14.1406236,24.2031264 14,24.5624978 14,25 L14,44.5 C14,44.9375022 14.1406236,45.2968736 14.421875,45.578125 C14.7031264,45.8593764 15.0624978,46 15.5,46 L26,46 C26.406252,46 26.7812483,45.8828137 27.125,45.6484375 C27.4687517,45.4140613 27.7187492,45.1093769 27.875,44.734375 L29.28125,40.65625 L29.28125,40.5625 L29.328125,40.515625 C29.5468761,39.9843723 29.8984351,39.5625016 30.3828125,39.25 C30.8671899,38.9374984 31.3906222,38.78125 31.953125,38.78125 C32.5156278,38.78125 33.0312477,38.9374984 33.5,39.25 C33.9687523,39.5625016 34.3124989,39.9843723 34.53125,40.515625 L34.578125,40.5625 L34.578125,40.609375 L36.125,44.734375 C36.2812508,45.1093769 36.5312483,45.4140613 36.875,45.6484375 C37.2187517,45.8828137 37.593748,46 38,46 L48.5,46 C48.9375022,46 49.2968736,45.8593764 49.578125,45.578125 C49.8593764,45.2968736 50,44.9375022 50,44.5 L50,25 C50,24.5624978 49.8593764,24.2031264 49.578125,23.921875 C49.2968736,23.6406236 48.9375022,23.5 48.5,23.5 L15.5,23.5 Z M23,28 C24.0937555,28 25.0937455,28.2734348 26,28.8203125 C26.9062545,29.3671902 27.6328098,30.0937455 28.1796875,31 C28.7265652,31.9062545 29,32.9062445 29,34 C29,35.0937555 28.7265652,36.0937455 28.1796875,37 C27.6328098,37.9062545 26.9062545,38.6328098 26,39.1796875 C25.0937455,39.7265652 24.0937555,40 23,40 C21.9062445,40 20.9062545,39.7265652 20,39.1796875 C19.0937455,38.6328098 18.3671902,37.9062545 17.8203125,37 C17.2734348,36.0937455 17,35.0937555 17,34 C17,32.9062445 17.2734348,31.9062545 17.8203125,31 C18.3671902,30.0937455 19.0937455,29.3671902 20,28.8203125 C20.9062545,28.2734348 21.9062445,28 23,28 Z M41,28 C42.0937555,28 43.0937455,28.2734348 44,28.8203125 C44.9062545,29.3671902 45.6328098,30.0937455 46.1796875,31 C46.7265652,31.9062545 47,32.9062445 47,34 C47,35.0937555 46.7265652,36.0937455 46.1796875,37 C45.6328098,37.9062545 44.9062545,38.6328098 44,39.1796875 C43.0937455,39.7265652 42.0937555,40 41,40 C39.9062445,40 38.9062545,39.7265652 38,39.1796875 C37.0937455,38.6328098 36.3671902,37.9062545 35.8203125,37 C35.2734348,36.0937455 35,35.0937555 35,34 C35,32.9062445 35.2734348,31.9062545 35.8203125,31 C36.3671902,30.0937455 37.0937455,29.3671902 38,28.8203125 C38.9062545,28.2734348 39.9062445,28 41,28 Z M23,31 C22.1562458,31 21.4453154,31.2890596 20.8671875,31.8671875 C20.2890596,32.4453154 20,33.1562458 20,34 C20,34.8437542 20.2890596,35.5546846 20.8671875,36.1328125 C21.4453154,36.7109404 22.1562458,37 23,37 C23.8437542,37 24.5546846,36.7109404 25.1328125,36.1328125 C25.7109404,35.5546846 26,34.8437542 26,34 C26,33.1562458 25.7109404,32.4453154 25.1328125,31.8671875 C24.5546846,31.2890596 23.8437542,31 23,31 Z M41,31 C40.1562458,31 39.4453154,31.2890596 38.8671875,31.8671875 C38.2890596,32.4453154 38,33.1562458 38,34 C38,34.8437542 38.2890596,35.5546846 38.8671875,36.1328125 C39.4453154,36.7109404 40.1562458,37 41,37 C41.8437542,37 42.5546846,36.7109404 43.1328125,36.1328125 C43.7109404,35.5546846 44,34.8437542 44,34 C44,33.1562458 43.7109404,32.4453154 43.1328125,31.8671875 C42.5546846,31.2890596 41.8437542,31 41,31 Z M31.953125,42.15625 L31.671875,43 L32.28125,43 L31.953125,42.15625 Z" id="-copy-2" fill="#FFFFFF"></path>
            <g id="Shape" fill-rule="nonzero">
                <use fill="black" fill-opacity="1" filter="url(#filter-2)" xlink:href="#path-1"></use>
                <use fill="#FFFFFF" fill-rule="evenodd" xlink:href="#path-1"></use>
            </g>
            <g id="Shape" fill-rule="nonzero">
                <use fill="black" fill-opacity="1" filter="url(#filter-4)" xlink:href="#path-3"></use>
                <use fill="#FFFFFF" fill-rule="evenodd" xlink:href="#path-3"></use>
            </g>
            <path d="M11,147 L23,147 L23,159 L11,159 L11,147 Z M26,147 L38,147 L38,159 L26,159 L26,147 Z M41,147 L53,147 L53,159 L41,159 L41,147 Z M14,150 L14,156 L20,156 L20,150 L14,150 Z M29,150 L29,156 L35,156 L35,150 L29,150 Z M44,150 L44,156 L50,156 L50,150 L44,150 Z M11,162 L23,162 L23,174 L11,174 L11,162 Z M26,162 L38,162 L38,174 L26,174 L26,162 Z M41,162 L53,162 L53,174 L41,174 L41,162 Z M14,165 L14,171 L20,171 L20,165 L14,165 Z M29,165 L29,171 L35,171 L35,165 L29,165 Z M44,165 L44,171 L50,171 L50,165 L44,165 Z" id="-copy-2" fill="#FFFFFF"></path>
            <path d="M96,140.5 C84.96,140.5 76,149.46 76,160.5 C76,171.54 84.96,180.5 96,180.5 C107.04,180.5 116,171.54 116,160.5 C116,149.46 107.04,140.5 96,140.5 Z M94,176.36 C86.1,175.38 80,168.66 80,160.5 C80,159.26 80.16,158.08 80.42,156.92 L90,166.5 L90,168.5 C90,170.7 91.8,172.5 94,172.5 L94,176.36 Z M107.8,171.28 C107.28,169.66 105.8,168.5 104,168.5 L102,168.5 L102,162.5 C102,161.4 101.1,160.5 100,160.5 L88,160.5 L88,156.5 L92,156.5 C93.1,156.5 94,155.6 94,154.5 L94,150.5 L98,150.5 C100.2,150.5 102,148.7 102,146.5 L102,145.68 C107.86,148.06 112,153.8 112,160.5 C112,164.66 110.4,168.44 107.8,171.28 Z" id="Shape" fill="#FFFFFF" fill-rule="nonzero"></path>
            <polygon id="" fill="#FFFFFF" points="27.921875 210.171875 15.171875 222.921875 14.140625 224 15.171875 225.078125 27.921875 237.828125 30.078125 235.671875 19.90625 225.5 50 225.5 50 222.5 19.90625 222.5 30.078125 212.328125"></polygon>
            <polygon id="" fill="#FFFFFF" points="32 270.140625 30.921875 271.171875 18.171875 283.921875 20.328125 286.078125 30.5 275.90625 30.5 306 33.5 306 33.5 275.90625 43.671875 286.078125 45.828125 283.921875 33.078125 271.171875"></polygon>
            <path d="M14,590.529297 L14,604.029297 L17,604.029297 L17,593.529297 L27.5,593.529297 L27.5,590.529297 L14,590.529297 Z M36.5,590.529297 L36.5,593.529297 L47,593.529297 L47,604.029297 L50,604.029297 L50,590.529297 L36.5,590.529297 Z M14,613.029297 L14,626.529297 L27.5,626.529297 L27.5,623.529297 L17,623.529297 L17,613.029297 L14,613.029297 Z M47,613.029297 L47,623.529297 L36.5,623.529297 L36.5,626.529297 L50,626.529297 L50,613.029297 L47,613.029297 Z" id="-copy" fill="#FFFFFF"></path>
            <path d="M88.5,590.529297 L88.5,601.029297 L78,601.029297 L78,604.029297 L91.5,604.029297 L91.5,590.529297 L88.5,590.529297 Z M100.5,590.529297 L100.5,604.029297 L114,604.029297 L114,601.029297 L103.5,601.029297 L103.5,590.529297 L100.5,590.529297 Z M78,613.029297 L78,616.029297 L88.5,616.029297 L88.5,626.529297 L91.5,626.529297 L91.5,613.029297 L78,613.029297 Z M100.5,613.029297 L100.5,626.529297 L103.5,626.529297 L103.5,616.029297 L114,616.029297 L114,613.029297 L100.5,613.029297 Z" id="-copy" fill="#FFFFFF"></path>
            <polygon id="" fill="#FFFFFF" points="30.5 335.5 30.5 350.5 15.5 350.5 15.5 353.5 30.5 353.5 30.5 368.5 33.5 368.5 33.5 353.5 48.5 353.5 48.5 350.5 33.5 350.5 33.5 335.5"></polygon>
            <path d="M32,460.5 C35.5312677,460.5 38.8124848,461.390616 41.84375,463.171875 C44.7812647,464.890634 47.1093664,467.218735 48.828125,470.15625 C50.6093839,473.187515 51.5,476.468732 51.5,480 C51.5,483.531268 50.6093839,486.812485 48.828125,489.84375 C47.1093664,492.781265 44.7812647,495.109366 41.84375,496.828125 C38.8124848,498.609384 35.5312677,499.5 32,499.5 C28.4687323,499.5 25.1875152,498.609384 22.15625,496.828125 C19.2187353,495.109366 16.8906336,492.781265 15.171875,489.84375 C13.3906161,486.812485 12.5,483.531268 12.5,480 C12.5,476.468732 13.3906161,473.187515 15.171875,470.15625 C16.8906336,467.218735 19.2187353,464.890634 22.15625,463.171875 C25.1875152,461.390616 28.4687323,460.5 32,460.5 Z M32,463.5 C28.999985,463.5 26.2187628,464.249993 23.65625,465.75 C21.1874877,467.218757 19.2187573,469.187488 17.75,471.65625 C16.2499925,474.218763 15.5,476.999985 15.5,480 C15.5,483.000015 16.2499925,485.781237 17.75,488.34375 C19.2187573,490.812512 21.1874877,492.781243 23.65625,494.25 C26.2187628,495.750007 28.999985,496.5 32,496.5 C35.000015,496.5 37.7812372,495.750007 40.34375,494.25 C42.8125123,492.781243 44.7812427,490.812512 46.25,488.34375 C47.7500075,485.781237 48.5,483.000015 48.5,480 C48.5,476.999985 47.7500075,474.218763 46.25,471.65625 C44.7812427,469.187488 42.8125123,467.218757 40.34375,465.75 C37.7812372,464.249993 35.000015,463.5 32,463.5 Z M24.078125,475.171875 L32,483.09375 L39.921875,475.171875 L42.078125,477.328125 L33.078125,486.328125 L32,487.359375 L30.921875,486.328125 L21.921875,477.328125 L24.078125,475.171875 Z" id="" fill="#FFFFFF"></path>
            <path d="M32,524.5 C35.5312677,524.5 38.8124848,525.390616 41.84375,527.171875 C44.7812647,528.890634 47.1093664,531.218735 48.828125,534.15625 C50.6093839,537.187515 51.5,540.468732 51.5,544 C51.5,547.531268 50.6093839,550.812485 48.828125,553.84375 C47.1093664,556.781265 44.7812647,559.109366 41.84375,560.828125 C38.8124848,562.609384 35.5312677,563.5 32,563.5 C28.4687323,563.5 25.1875152,562.609384 22.15625,560.828125 C19.2187353,559.109366 16.8906336,556.781265 15.171875,553.84375 C13.3906161,550.812485 12.5,547.531268 12.5,544 C12.5,540.468732 13.3906161,537.187515 15.171875,534.15625 C16.8906336,531.218735 19.2187353,528.890634 22.15625,527.171875 C25.1875152,525.390616 28.4687323,524.5 32,524.5 Z M32,527.5 C28.999985,527.5 26.2187628,528.249992 23.65625,529.75 C21.1874877,531.218757 19.2187573,533.187488 17.75,535.65625 C16.2499925,538.218763 15.5,540.999985 15.5,544 C15.5,547.000015 16.2499925,549.781237 17.75,552.34375 C19.2187573,554.812512 21.1874877,556.781243 23.65625,558.25 C26.2187628,559.750008 28.999985,560.5 32,560.5 C35.000015,560.5 37.7812372,559.750008 40.34375,558.25 C42.8125123,556.781243 44.7812427,554.812512 46.25,552.34375 C47.7500075,549.781237 48.5,547.000015 48.5,544 C48.5,540.999985 47.7500075,538.218763 46.25,535.65625 C44.7812427,533.187488 42.8125123,531.218757 40.34375,529.75 C37.7812372,528.249992 35.000015,527.5 32,527.5 Z M30.5,535 L33.5,535 L33.5,542.5 L41,542.5 L41,545.5 L33.5,545.5 L33.5,553 L30.5,553 L30.5,545.5 L23,545.5 L23,542.5 L30.5,542.5 L30.5,535 Z" id="" fill="#FFFFFF"></path>
            <path d="M32,654 C35.2500163,654 38.2812359,654.828117 41.09375,656.484375 C43.8125136,658.046883 45.968742,660.187486 47.5625,662.90625 C49.1875081,665.718764 50,668.749984 50,672 C50,675.250016 49.1875081,678.281236 47.5625,681.09375 C45.968742,683.812514 43.8125136,685.968742 41.09375,687.5625 C38.2812359,689.187508 35.2500163,690 32,690 C28.7499837,690 25.7187641,689.187508 22.90625,687.5625 C20.1874864,685.968742 18.0468828,683.812514 16.484375,681.09375 C14.8281167,678.281236 14,675.250016 14,672 C14,668.749984 14.8281167,665.718764 16.484375,662.90625 C18.0468828,660.187486 20.1874864,658.046883 22.90625,656.484375 C25.7187641,654.828117 28.7499837,654 32,654 Z M32,657 C29.2812364,657 26.7500117,657.687493 24.40625,659.0625 C22.1562387,660.375007 20.3750066,662.156239 19.0625,664.40625 C17.6874931,666.750012 17,669.281236 17,672 C17,674.718764 17.6874931,677.249988 19.0625,679.59375 C20.3750066,681.843761 22.1562387,683.624993 24.40625,684.9375 C26.7500117,686.312507 29.2812364,687 32,687 C34.7187636,687 37.2499883,686.312507 39.59375,684.9375 C41.8437613,683.624993 43.6249934,681.843761 44.9375,679.59375 C46.3125069,677.249988 47,674.718764 47,672 C47,669.281236 46.3125069,666.750012 44.9375,664.40625 C43.6249934,662.156239 41.8437613,660.375007 39.59375,659.0625 C37.2499883,657.687493 34.7187636,657 32,657 Z M26,661.6875 L28.25,663 L41.75,670.6875 L44,672 L41.75,673.3125 L28.25,681 L26,682.3125 L26,661.6875 Z M29,666.84375 L29,677.15625 L37.953125,672 L29,666.84375 Z" id="" fill="#FFFFFF"></path>
            <path d="M27.78125,716.5 L36.21875,716.5 L37.34375,722.171875 C38.6875067,722.703128 39.9843688,723.468745 41.234375,724.46875 L45.59375,722.96875 L46.765625,722.59375 L50.984375,729.90625 L46.71875,733.65625 L46.765625,734.078125 C46.9218758,734.921879 47,735.562498 47,736 C47,736.437502 46.9218758,737.078121 46.765625,737.921875 L46.71875,738.34375 L50.984375,742.09375 L46.765625,749.40625 L45.59375,749.03125 L41.234375,747.53125 C39.9843688,748.531255 38.6875067,749.296872 37.34375,749.828125 L36.21875,755.5 L27.78125,755.5 L26.65625,749.828125 C25.3124933,749.296872 24.0156312,748.531255 22.765625,747.53125 L18.40625,749.03125 L17.234375,749.40625 L13.015625,742.09375 L17.28125,738.34375 L17.234375,737.921875 C17.0781242,737.078121 17,736.437502 17,736 C17,735.562498 17.0781242,734.921879 17.234375,734.078125 L17.28125,733.65625 L13.015625,729.90625 L17.234375,722.59375 L18.40625,722.96875 L22.765625,724.46875 C24.0156312,723.468745 25.3124933,722.703128 26.65625,722.171875 L27.546875,717.71875 L27.78125,716.5 Z M30.21875,719.5 L29.46875,723.390625 L29.28125,724.28125 L28.4375,724.5625 C26.7187414,725.093753 25.2031316,725.968744 23.890625,727.1875 L23.234375,727.796875 L18.59375,726.203125 L16.8125,729.25 L19.8125,731.921875 L20.515625,732.484375 L20.28125,733.375 C20.0937491,734.218754 20,735.093745 20,736 C20,736.906255 20.0937491,737.781246 20.28125,738.625 L20.515625,739.515625 L19.8125,740.078125 L16.8125,742.75 L18.59375,745.796875 L23.234375,744.203125 L23.890625,744.8125 C25.2031316,746.031256 26.7187414,746.906247 28.4375,747.4375 L29.28125,747.71875 L30.21875,752.5 L33.78125,752.5 L34.71875,747.71875 L35.5625,747.4375 C37.2812586,746.906247 38.7968684,746.031256 40.109375,744.8125 L40.765625,744.203125 L45.40625,745.796875 L47.1875,742.75 L43.53125,739.515625 L43.71875,738.625 C43.9062509,737.781246 44,736.906255 44,736 C44,735.093745 43.9062509,734.218754 43.71875,733.375 L43.484375,732.484375 L44.1875,731.921875 L47.1875,729.25 L45.40625,726.203125 L40.765625,727.796875 L40.109375,727.1875 C38.7968684,725.968744 37.2812586,725.093753 35.5625,724.5625 L34.71875,724.28125 L33.78125,719.5 L30.21875,719.5 Z M32,728.5 C33.3437567,728.5 34.5937442,728.835934 35.75,729.507812 C36.9062558,730.179691 37.8203091,731.093744 38.4921875,732.25 C39.1640659,733.406256 39.5,734.656243 39.5,736 C39.5,737.343757 39.1640659,738.593744 38.4921875,739.75 C37.8203091,740.906256 36.9062558,741.820309 35.75,742.492188 C34.5937442,743.164066 33.3437567,743.5 32,743.5 C30.6562433,743.5 29.4062558,743.164066 28.25,742.492188 C27.0937442,741.820309 26.1796909,740.906256 25.5078125,739.75 C24.8359341,738.593744 24.5,737.343757 24.5,736 C24.5,734.656243 24.8359341,733.406256 25.5078125,732.25 C26.1796909,731.093744 27.0937442,730.179691 28.25,729.507812 C29.4062558,728.835934 30.6562433,728.5 32,728.5 Z M32,731.5 C30.7499938,731.5 29.6875044,731.937496 28.8125,732.8125 C27.9374956,733.687504 27.5,734.749994 27.5,736 C27.5,737.250006 27.9374956,738.312496 28.8125,739.1875 C29.6875044,740.062504 30.7499938,740.5 32,740.5 C33.2500062,740.5 34.3124956,740.062504 35.1875,739.1875 C36.0625044,738.312496 36.5,737.250006 36.5,736 C36.5,734.749994 36.0625044,733.687504 35.1875,732.8125 C34.3124956,731.937496 33.2500062,731.5 32,731.5 Z" id="" fill="#FFFFFF"></path>
            <path d="M11.6974418,420.746664 L14.2212929,418.222813 C12.4798357,417.225892 11.508153,416.165874 11.508153,415.257288 C11.508153,412.594625 19.4835224,408.720513 31.9765854,408.720513 L32.8725525,408.720513 L36.2418937,405.300695 C34.8285371,405.199741 33.3899419,405.136645 31.9765854,405.136645 C20.3542511,405.136645 8,408.670036 8,415.232049 C8.02523849,417.389942 9.41335663,419.244973 11.6974418,420.746664 L11.6974418,420.746664 Z" id="Shape" fill="#FFFFFF" fill-rule="nonzero"></path>
            <path d="M32.0018239,395.508153 C34.6392482,395.508153 38.3997864,402.486601 38.8793181,413.629404 L42.6650948,412.695579 C41.9331779,402.095404 38.3114516,392 32.0018239,392 C27.2443646,392 23.9885967,397.779619 22.4111897,405.149264 L26.4998285,404.127105 C27.9005659,398.675586 30.1846511,395.508153 32.0018239,395.508153 L32.0018239,395.508153 Z M37.7940621,426.501044 C36.3807055,432.810672 33.8820929,436.445018 31.9639661,436.445018 C30.0458393,436.445018 27.6608,432.911626 26.2348241,426.892241 L22.6004786,427.800828 C24.253601,434.678322 27.4336534,439.953171 32.0018239,439.953171 C37.0495261,439.953171 40.3810095,433.479493 41.8574624,425.491504 L37.7940621,426.501044 Z" id="Shape" fill="#FFFFFF" fill-rule="nonzero"></path>
            <path d="M40.1286244,419.257592 L45.542285,409.894104 L34.727583,409.894104 L40.1286244,419.257592 Z M14.1203389,420.254513 L21.6792729,427.990117 L24.6069402,417.579231 L14.1203389,420.254513 Z" id="Shape" fill="#FFFFFF" fill-rule="nonzero"></path>
            <path d="M51.1073766,408.935041 L48.4951908,411.585084 C51.0190419,412.758675 52.4702563,414.108936 52.4702562,415.206811 C52.4702562,417.869474 44.4948868,421.743585 32.0018239,421.743585 C28.8968195,421.754426 25.797033,421.488368 22.7392904,420.948572 L19.7990039,423.926716 C23.8015601,424.843508 27.8956287,425.300756 32.0018239,425.289596 C43.6241581,425.289596 55.9784092,421.756204 55.9784092,415.194192 C55.9784092,412.632483 54.0855209,410.537686 51.1073766,408.935041 L51.1073766,408.935041 Z" id="Shape" fill="#FFFFFF" fill-rule="nonzero"></path>
            <polygon id="" fill="#FFFFFF" points="100.078125 210.171875 97.921875 212.328125 108.09375 222.5 78 222.5 78 225.5 108.09375 225.5 97.921875 235.671875 100.078125 237.828125 112.828125 225.078125 113.859375 224 112.828125 222.921875"></polygon>
            <polygon id="" fill="#FFFFFF" points="94.5 270 94.5 300.09375 84.328125 289.921875 82.171875 292.078125 94.921875 304.828125 96 305.859375 97.078125 304.828125 109.828125 292.078125 107.671875 289.921875 97.5 300.09375 97.5 270"></polygon>
            <polygon id="" fill="#FFFFFF" points="79.5 350.5 79.5 353.5 112.5 353.5 112.5 350.5"></polygon>
            <g id="">
                <use fill="black" fill-opacity="1" filter="url(#filter-6)" xlink:href="#path-5"></use>
                <use fill="#FFFFFF" fill-rule="evenodd" xlink:href="#path-5"></use>
            </g>
            <path d="M96,524.5 C99.5312677,524.5 102.812485,525.390616 105.84375,527.171875 C108.781265,528.890634 111.109366,531.218735 112.828125,534.15625 C114.609384,537.187515 115.5,540.468732 115.5,544 C115.5,547.531268 114.609384,550.812485 112.828125,553.84375 C111.109366,556.781265 108.781265,559.109366 105.84375,560.828125 C102.812485,562.609384 99.5312677,563.5 96,563.5 C92.4687323,563.5 89.1875152,562.609384 86.15625,560.828125 C83.2187353,559.109366 80.8906336,556.781265 79.171875,553.84375 C77.3906161,550.812485 76.5,547.531268 76.5,544 C76.5,540.468732 77.3906161,537.187515 79.171875,534.15625 C80.8906336,531.218735 83.2187353,528.890634 86.15625,527.171875 C89.1875152,525.390616 92.4687323,524.5 96,524.5 Z M96,527.5 C92.999985,527.5 90.2187628,528.249992 87.65625,529.75 C85.1874877,531.218757 83.2187573,533.187488 81.75,535.65625 C80.2499925,538.218763 79.5,540.999985 79.5,544 C79.5,547.000015 80.2499925,549.781237 81.75,552.34375 C83.2187573,554.812512 85.1874877,556.781243 87.65625,558.25 C90.2187628,559.750008 92.999985,560.5 96,560.5 C99.000015,560.5 101.781237,559.750008 104.34375,558.25 C106.812512,556.781243 108.781243,554.812512 110.25,552.34375 C111.750008,549.781237 112.5,547.000015 112.5,544 C112.5,540.999985 111.750008,538.218763 110.25,535.65625 C108.781243,533.187488 106.812512,531.218757 104.34375,529.75 C101.781237,528.249992 99.000015,527.5 96,527.5 Z M87,542.5 L105,542.5 L105,545.5 L87,545.5 L87,542.5 Z" id="" fill="#FFFFFF"></path>
            <path d="M96,652.507812 C99.5312677,652.507812 102.812485,653.398429 105.84375,655.179688 C108.781265,656.898446 111.109366,659.226548 112.828125,662.164062 C114.609384,665.195328 115.5,668.476545 115.5,672.007812 C115.5,675.53908 114.609384,678.820297 112.828125,681.851562 C111.109366,684.789077 108.781265,687.117179 105.84375,688.835938 C102.812485,690.617196 99.5312677,691.507812 96,691.507812 C92.4687323,691.507812 89.1875152,690.617196 86.15625,688.835938 C83.2187353,687.117179 80.8906336,684.789077 79.171875,681.851562 C77.3906161,678.820297 76.5,675.53908 76.5,672.007812 C76.5,668.476545 77.3906161,665.195328 79.171875,662.164062 C80.8906336,659.226548 83.2187353,656.898446 86.15625,655.179688 C89.1875152,653.398429 92.4687323,652.507812 96,652.507812 Z M96,655.507812 C93.0312352,655.507812 90.2656378,656.257805 87.703125,657.757812 C85.2031125,659.22657 83.2187573,661.210925 81.75,663.710938 C80.2499925,666.27345 79.5,669.039048 79.5,672.007812 C79.5,674.976577 80.2499925,677.742175 81.75,680.304688 C83.2187573,682.8047 85.2031125,684.789055 87.703125,686.257812 C90.2656378,687.75782 93.0312352,688.507812 96,688.507812 C98.9687648,688.507812 101.734362,687.75782 104.296875,686.257812 C106.796887,684.789055 108.781243,682.8047 110.25,680.304688 C111.750008,677.742175 112.5,674.976577 112.5,672.007812 C112.5,669.039048 111.750008,666.27345 110.25,663.710938 C108.781243,661.210925 106.796887,659.22657 104.296875,657.757812 C101.734362,656.257805 98.9687648,655.507812 96,655.507812 Z M88.5,664.507812 L103.5,664.507812 L103.5,679.507812 L88.5,679.507812 L88.5,664.507812 Z M91.5,667.507812 L91.5,676.507812 L100.5,676.507812 L100.5,667.507812 L91.5,667.507812 Z" id="" fill="#FFFFFF"></path>
            <path d="M97.5,717.390625 L97.5,754.609375 L94.921875,752.078125 L86.34375,743.5 L79.5,743.5 L79.5,728.5 L86.34375,728.5 L94.921875,719.921875 L97.5,717.390625 Z M107.71875,724.28125 C109.81251,726.37501 111.234371,728.859361 111.984375,731.734375 C112.734379,734.515639 112.734379,737.312486 111.984375,740.125 C111.234371,743.000014 109.81251,745.484365 107.71875,747.578125 L105.609375,745.421875 C107.328134,743.703116 108.499997,741.671887 109.125,739.328125 C109.718753,737.046864 109.718753,734.765636 109.125,732.484375 C108.499997,730.140613 107.328134,728.109384 105.609375,726.390625 L107.71875,724.28125 Z M94.5,724.65625 L88.078125,731.078125 L87.609375,731.5 L82.5,731.5 L82.5,740.5 L87.609375,740.5 L88.078125,740.921875 L94.5,747.34375 L94.5,724.65625 Z M103.359375,728.640625 C104.671882,729.953132 105.562498,731.507804 106.03125,733.304688 C106.500002,735.101571 106.507815,736.906241 106.054688,738.71875 C105.60156,740.531259 104.718757,742.124993 103.40625,743.5 L101.203125,741.390625 C102.14063,740.39062 102.781248,739.242194 103.125,737.945312 C103.468752,736.648431 103.476564,735.359381 103.148438,734.078125 C102.820311,732.796869 102.187505,731.687505 101.25,730.75 L103.359375,728.640625 Z" id="" fill="#FFFFFF"></path>
        </g>
    </g>
</svg>